<svg id="Layer_1" data-name="Layer 1" xmlns="http://www.w3.org/2000/svg" viewBox="0 0 301.46 309.69"><defs><style>.cls-1{fill:none;}</style></defs><path class="cls-1" d="M-5.78,414.06" transform="translate(-7.54 -4)"/><path d="M60.57,295.33s-11.52,7.78-11.52,13.35,1.22,5.2,8.59,4.83,12.59-2.6,14.45-4.09,4.08-.74,5.2-1.11,4.84-8.16,4.84-8.16S67.32,287.35,60.57,295.33Z" transform="translate(-7.54 -4)"/><path d="M188.23,293.79s-2.25,7.09-.76,8.2,11.7,2.62,12.82,2.23,5.2-1.67,7.8,0,2.6,3.16,11.52,4.09,15.8,0,15.61-2.77-5-5.6-10-7.64a10.93,10.93,0,0,1-6.32-6l-8.73-5.67Z" transform="translate(-7.54 -4)"/><path d="M126,38s-1.92,1.06-3,0l.68,1.11A4.42,4.42,0,0,0,126,38Z" transform="translate(-7.54 -4)"/><path d="M116.23,29.19c2,.34,4.87,2.57,6.29,4.94s1.3,2.64,1.28,3.64c0,1.67,1.91,2.23,3,2.73,1.74.8,3.61,1.2,2.31,2.82-1.46,1.81-.53,2.29.31,2.53.61.18.19,1.31.06,1.66,0,0,1.3.42,1,1.23s-1.05,1.06-.85,1.61,1.79,2.32,1.12,3.49-3.57,1.84-5,2.4a8.34,8.34,0,0,0-4,3.77c-2.56,5.63-3,9.57-11.15,5.13-2.58-1.4-2.44-7.9-2.35-8.13s3.93-17.49,3.93-17.49Z" transform="translate(-7.54 -4)"/><path d="M100.65,63.88s-.12,13.52-1.91,14.55,19.47,10.74,17.38,4c-2.29-7.32.07-10.22,4.48-19.85,4.34-9.45-2.27-29.57-2.27-29.57l-9.26-.84S93.53,50.16,94,50.05,100.65,63.88,100.65,63.88Z" transform="translate(-7.54 -4)"/><path d="M117.58,29.64c-1.07-2-8.9-5.56-16.91-2.63S89.51,34.39,89.6,46.11c0,0-.7,6.48,2.26,10.73s8.59,8.25,11.12,5.72c3.54-3.54,3.54-10.5,3.54-10.5a3.35,3.35,0,0,1-1.6-3.18c.2-2.19,2.81-2.89,3.64-2.58s2,.87,2,.87,1.76-2.3,1.45-3.69-1.56-3.53-.29-4.68a17.6,17.6,0,0,0,4.26-5.24A19.55,19.55,0,0,0,117.58,29.64Z" transform="translate(-7.54 -4)"/><path d="M93.51,32.54c-4-1.85-9,.19-10.93,4.55s-.32,9.4,3.72,11.25,9-.19,11-4.55S97.57,34.39,93.51,32.54Z" transform="translate(-7.54 -4)"/><path d="M102.31,140s12,8.46,10.64,19.89-3.42,17.36-12.73,18.71-15.84,1.68-21.71,2.91-26.69-1.7-32.55-3.69-10.29-3.29-8,0A35.84,35.84,0,0,1,43.83,202c-1.43,11.95,5,30.29,8.06,33.19s11.08,7.22,8,14.22-6.62,2-7.45,7.95c-.47,3.28-2.1,14.41-9.24,13.56s-13.28,1.62-13.09,0A3.58,3.58,0,0,1,34,267.85c4.36.68,5.49-6.6,5.71-9.51A73.47,73.47,0,0,0,39,241c-1.29-7.3-13.11-38.81-15.12-45.41s-10.53-32-6.83-35.34,30.57-10,41.32-11.63,7.9-1.57,7.9-1.57S95.31,142.14,102.31,140Z" transform="translate(-7.54 -4)"/><path d="M52.49,235.74s-2.93,4.15-1.55,6.28c1.94,3,1.68,7.22.45,9a92.66,92.66,0,0,0-6.51,10.76c-1.2,2.31-3.33,5.39-7.13,3.94,0,0-2.62.64-3.94.87-3.14.57-5,2.71-5.2,4.3s6.76,2.35,13.88,1.59c9.52-1,8.76-6.79,10.54-11.84,2-5.56,3.68-4.24,6.81-11.26C62.79,242.84,55.88,238.62,52.49,235.74Z" transform="translate(-7.54 -4)"/><path d="M59.77,247.11a55.94,55.94,0,0,0,2.53,18.26l-3.07.89s-.55-12.92-4.79-13.59Z" transform="translate(-7.54 -4)"/><path d="M127.59,152.18A83.71,83.71,0,0,1,126.32,175c-2.44,11.44-11.51,13.25-21.11,13.68s-9-.13-15.1.52-21.94-2-27.73-4.65-10.16-4.37-8.14-.83A36.58,36.58,0,0,1,58,208.82c-2.55,12,2.85,31,5.73,34.23s10.61,8.45,6.79,15.23-6.92,1.4-8.31,7.28c-.77,3.27-3.44,14.38-10.63,12.79s-13.65.29-13.31-1.29a3.62,3.62,0,0,1,4.29-2.77c4.38,1.14,6.18-6.12,6.67-9a74.75,74.75,0,0,0,.86-17.69c-.65-7.52-10.36-40.43-11.79-47.32s-7.79-33.52-3.72-36.49,32-7,43.08-7.57,8.18-.79,8.18-.79S120.29,153.62,127.59,152.18Z" transform="translate(-7.54 -4)"/><path d="M64.3,243.65s-3.35,3.91-2.14,6.21c1.69,3.21,1,7.49-.38,9.2a95.85,95.85,0,0,0-7.59,10.24c-1.44,2.22-3.89,5.12-7.62,3.26,0,0-2.72.39-4.08.49-3.25.26-5.35,2.24-5.68,3.82s6.66,3.08,14,3c9.77-.06,9.52-6,11.8-10.91,2.5-5.44,4.13-3.92,8-10.7C74.13,251.9,67.49,246.91,64.3,243.65Z" transform="translate(-7.54 -4)"/><path d="M70.67,255.91a56.87,56.87,0,0,0,.91,18.75l-3.21.59S69,262.11,64.74,261Z" transform="translate(-7.54 -4)"/><path d="M129.58,133.4s10.32-8.67,12.55-14.52,4.65-14.58,2.05-15.33-16.73-4.82-16.73-4.82l2.13,35.3Z" transform="translate(-7.54 -4)"/><path d="M190.44,167.79s18.95,15.29,26.48,23.46,20.53,23,19.79,26.76-8.92,38.65-10.78,43.85-6.22,20.81-6,22.76.84,5.57-1.11,7.25a9.49,9.49,0,0,0-5.28-1.4c-3.36,0-10.05.28-12,3.62s-13.38,1.58-13.39.36c0-4.32,4.47-10.95,7.26-15.69S206.61,232,206.61,232s-34.84-32.92-41.53-33.48-16.44,7.52-23.69,17-11.15,13.38-17.56,23.41S91.5,290.19,87.32,294.65s-6.12,11.65-7.24,10.82-6.69-9.7-12-10.26-11.43,1.11-11.7-.56,29.54-46.82,31.77-50.72,14.21-16.45,14.49-17.56,17.57-53.34,22.86-61.09Z" transform="translate(-7.54 -4)"/><path d="M211.9,66.62a130.41,130.41,0,0,1,13.66-8.86c5.85-3.07,8.36-3.63,11.15-6.69s8.63-9,20.06-14.51S274.33,25,276.84,23.94s8.92-4.37,8.92-6.59.28-6.83,1.95-7.25,1.67,5.29,1.67,5.29a43,43,0,0,0,2.51-5.31c.69-2.07,2.23-6,3.2-6s1.54,1.53.84,4.46a29.45,29.45,0,0,1-1.67,5s3.06-2.92,4.46-4.46,3.34-5.85,4.18-5,1.67,2.23,0,5.15A22.49,22.49,0,0,1,298,14.7s9.2-3.9,10.31-4,.84,2.78-.84,3.62-9.61,4.88-10.17,5.85-2.51,4.26-1.53,3.81,5.71-2.28,7-1.37.69,2-.7,2.86-4.88,1.67-6.13,3.2-5,3.3-7.67,2.7-7.8,3.15-10.45,6.92S267.22,55,258,58.45s-11,6-15,10.31-13.24,17.59-26.06,22.38c0,0-5-.08-5.72-9.55S211.9,66.62,211.9,66.62Z" transform="translate(-7.54 -4)"/><path d="M170.56,81.94l9.15-10a118.49,118.49,0,0,1,13.5.3c6.13.6,18.69-5.65,18.69-5.65s2.79,25.36,5,24.52a66.9,66.9,0,0,0-8.08,10c-3.35,5.29-8.65,24-11.15,29.26s-7,32.33-7.25,37.35c0,0-7.25,3.62-28.7,3.34s-36.23-5.85-36.23-5.85S130.24,152.74,133,148s5.57-13.1,5.85-15.33-1.39-16.44-.28-19.51c0,0-11.78-3.9-15.92-12.26,0,0,9-15.33,9.79-20.35s19.15-8.72,29.27-8.12Z" transform="translate(-7.54 -4)"/><path d="M118.82,65.9s-1.21,4.95,1.58,4.77,6.31-.27,7.8-2.18,2.6-2.72,6.32-2.59,14.12,2.65,17.46,2.59,25.83.08,32.52,0c5,0,9.47-2.21,11.89-1.87s4.56,1.21,9.84,1.66a28.92,28.92,0,0,0,5.9,0c4.43-.55,8.72-1.75,9-.42S212.51,71,212.51,71s3.57.37,6.45,1,5.3.65,5.2,1.67-1.3,1-3.06,1h-6.23s4.09,1.86,6,2.51,5,.65,5,1.57-.37,3-12.29-1a38.76,38.76,0,0,0,6.27,4.18c2.88,1.4,2.67,3.28.07,3s-10.4-5.85-11.42-5.95-3.42.75-1.19,2.33,5.45,3.61,4.74,4.73-3.23.14-4.81-1.25-7.5-4.6-9-7.39-1.37-3.33-3.13-4A33.77,33.77,0,0,0,189,72c-.65,0-7.52-.07-7.52-.07s-20.61.47-21,.46-4.57,2-6.89,3-8.27,3.81-11.06,4.92a10.86,10.86,0,0,0-6.13,7c-1.11,3.43-.92,9.66-1.57,11.24s-44,3.81-44,3.81-6.55-.84-7-1.95-2.53-8.46-3.27-9.57-7.43-6.32-11.33-8.36S60.1,76,55.55,71.69s-7.34-7.89-8.83-8.92-10.59-9.1-13.19-13.1-5.85-9.84-7.71-10.31-4.64,1-6.87.84-3.62.84-5.58,1.67-5.38,1.6-5.76.52.75-1.54,2-2,2.61-.36,3.63-1.11,2.69-2.6,3.62-2.88a40.16,40.16,0,0,0-3.71-3.07C11.79,32.49,8.45,29,9.1,28s5,2.69,5,2.69-.52-1.74.32-1.88S18,32.05,18,32.05s-.07-1.67.48-1.67.7,2.08,2.37,2.36,4.95-.07,7,1S38.2,41.45,42.45,44.73s10.73,7.31,14,11,3.69,3.54,5.78,4.52,5.85,3.5,11.29,6.29S85.65,69.74,88.86,72a25.73,25.73,0,0,1,6.82,6.55c1.12,1.81,3.59-1.59,3.91-3.54S118.82,65.9,118.82,65.9Z" transform="translate(-7.54 -4)"/><path d="M153.75,31.33a10.78,10.78,0,0,0-2.49,6.06c-.21,2.38-1.71,3.81-.65,5.42s.35,3.93-1.32,6c-1.86,2.26-2.61,3.68-.59,4.37s1.72.56,1.63,1.09-1,1.36.26,2.32c0,0-.91,1-.06,1.86s1.23,1.17.73,2-1.44,3.74,1.08,4.72,5.15.1,6.08.49c2.2,1,.06,2.21,1.92,4.54s-3.71,6-3.71,6,17.43.67,23.08-7.47c0,0-1.8-6.78-1.24-8.49,0,0-.42-.33-.2-1.8,0,0-1.52-1.73-1.19-2.78,0,0-.89-2.55.09-3.79a2.28,2.28,0,0,1,.18-2,5.33,5.33,0,0,0,1.23-3.15c.08-1.48-7-6.4-7.23-7s-1.63-1.77-1.22-2.6.23-1.34-.28-1.69S153.75,31.33,153.75,31.33Z" transform="translate(-7.54 -4)"/><path d="M178.61,63.65C177.1,58.35,183.1,49,185,44.16s.83-16.24-9-18.87c-16.9-4.52-25.7,3.42-22.53,7,0,0,12.39,4,13.08,16.39l2.4.4s-.43-5.92,2.86-5.73c3.11.19,1.35,3.72,1.63,5.3s2.49,4.22-.89,4.28a10.07,10.07,0,0,0,3.63,5.89A8.32,8.32,0,0,1,178.61,63.65Z" transform="translate(-7.54 -4)"/><path d="M153.39,32.28a4.56,4.56,0,0,1-3-5.11s1.81,1,5-.69a31.23,31.23,0,0,1,6.66-3.1c8.81-2.49,21.75.56,23.14,11.7s-9.6,3.05-9.6,3.05Z" transform="translate(-7.54 -4)"/><path d="M178.78,64.64s1,7.47,6.51,11.67l-14.73,7.37-13.93-7.44Z" transform="translate(-7.54 -4)"/><path d="M82.21,95.41s4,10.19,3.63,20.41.92,11.89-.75,16.54a87.12,87.12,0,0,1-5.76,11.51s6.88,9.58,17.1,12.22,30.1,5.06,32.14,4.32c0,0-.19-5.76,0-11.52s4.65-37.34,5.39-41.06,2.15-15.42,2-18.86c-.1-2.45-23-2.58-38.63.1C91.06,90.14,82.21,95.41,82.21,95.41Z" transform="translate(-7.54 -4)"/><path d="M124.44,70.28s-1.13,17.25-20.89,17.91H135s-9.56-11.8-6.77-19.7Z" transform="translate(-7.54 -4)"/><path d="M84.26,109.78c.74.74,2.32,3.16,1.3,4.74s-.19,2.13.74,2.6,6,4.27,5.67,5.48a3.07,3.07,0,0,0,0,2.6,3.06,3.06,0,0,1,0,2.69c-.49.66-.86.56-.77,1.49s-2,1.12-2,1.12,1.58,1.67.93,2.32-1.11,1.58-6.5-2.41-5.21-4.87-5.21-6-.09-1.87,0-3.13.38-2.57.38-3.59a3.73,3.73,0,0,1,.55-2.14c.47-1,.84-2.14,1.12-2.79s.18-2.88,1.76-3.34S84.26,109.78,84.26,109.78Z" transform="translate(-7.54 -4)"/><path d="M85.85,155.39s2.91.2-8.18.79c-4,.21-10.31.88-16.85,1.79A22.06,22.06,0,0,0,68,172.14c6.75,5.92,10.64,14.67,10.94,16.39a52.56,52.56,0,0,0,11.17.67c6.08-.65,5.51-.09,15.1-.52s18.67-2.24,21.11-13.68a83.71,83.71,0,0,0,1.27-22.82C120.29,153.62,85.85,155.39,85.85,155.39Z" transform="translate(-7.54 -4)"/><path d="M60.82,158s-1.06-3.12-3-2.76-7-2-5.52-5.53l26.79-5.21s10.26,12.27,34.64,9.16l-10.71,14Z" transform="translate(-7.54 -4)"/></svg>