<svg id="Layer_1" data-name="Layer 1" xmlns="http://www.w3.org/2000/svg" viewBox="0 0 285.52 359"><path d="M36.62,379.34c0,10.85,6.06,19.66,13.53,19.66s13.53-8.81,13.53-19.66-6-19.66-13.53-19.66S36.62,368.47,36.62,379.34Z" transform="translate(-5.14 -40)"/><path d="M137.34,192.07s-14.49,9.47-54.71-2.67l-21,44.91L151,220.53Z" transform="translate(-5.14 -40)"/><path d="M103,89.29,128,86.74c-1.23,7.7,1.33,9.62,5.7,13.23s14,5.54,16.66,6.38,11.82,3.3,19.22,18.68c4.71,9.78,11.48,26.67,16.08,38.87-1.78,2.56-3.32,5.32-5.69,7.4a2.64,2.64,0,0,0-.13,4l-72.15-19.48-18.61-22V118Z" transform="translate(-5.14 -40)"/><path d="M31.53,115.22s23-5.83,27.59-6.59,6.07-3,16.19-9.62,25.38-5,25.38-5h0L89.11,118v15.75l18.61,22,62.46,16.86c.82,1.15,1.66,2.27,2.51,3.41l-.18.09c-12.91,8.36-26.88,14-41.24,19.4-4.68,1.74-9.26,3.75-13.86,5.72-22.69-2.18-34.78-11.87-34.78-11.87a186.17,186.17,0,0,1-1.24-21.27c0-11.65-4.81-35.19-4.81-35.19l-45,5.56C36.08,129.14,31.53,115.22,31.53,115.22Z" transform="translate(-5.14 -40)"/><path d="M169.61,125c4.71,9.78,11.48,26.67,16.08,38.87-1.78,2.56-3.32,5.32-5.69,7.4a2.64,2.64,0,0,0-.13,4l-72.15-19.48L86.08,139.84,83,118l17.66-24,12.72,45.29L133.73,100c4.36,3.61,14,5.54,16.66,6.38S162.21,109.65,169.61,125Z" transform="translate(-5.14 -40)"/><path d="M244.8,367.11a46.81,46.81,0,0,0,14.43,13c8.94,4.92,18.79,4.49,20,15.49,0,0-20.41,1.17-26.49.39s-8.73-7.63-9.49-5.73a7,7,0,0,0,0,4.19H227.71s-1.14-3.42-3.42-11.77S244.8,367.11,244.8,367.11Z" transform="translate(-5.14 -40)"/><path d="M82.63,189.4S65.42,225,61.6,234.31s-9,18.87-12.36,35.2-7.21,22-6.84,32.29-6.83,75.56-6.83,75.56,25.7,2,30,2.74c0,0,6.08-71.1,9.11-78.3S98.6,236.1,98.6,236.1Z" transform="translate(-5.14 -40)"/><polygon points="167.55 216.98 243.45 328.24 219.15 342.67 125.74 212.43 167.55 216.98"/><path d="M41.27,196.23c5.31-4.18,5.15-5.81,38.28-2.07s2.73,38.14,2.73,38.14-17.66-7.78-21.65-12.15c0,0,3.07,9,1,14.16L52.28,257s-7.22-20.88-11-34.17S36,200.4,41.27,196.23Z" transform="translate(-5.14 -40)"/><path d="M196.58,263.07c7.21,11.76,19.36,29.61,20.88,31.5s15.19,12.54,27.72,34.19,13.29,28.47,24.3,38l-12.91,4.18s-12.91-17.85-20.88-22.4-23.93-27-30.38-33.8-40.25-41.39-40.25-41.39Z" transform="translate(-5.14 -40)"/><path d="M166.59,112.8s2.83,9,.83,14.32-15.46,9.19-22,12.15c-5.57,2.54-12.37,11.18-10.8,19.45,1.68,8.9-2.12,37.88-6.42,40.92L77.72,194s-7.59,10.25-2.28,21.65,1.52,17.08,5.7,27,41.39,15.57,44.42,22S159,281.67,173.79,279s27.34-15.18,27.34-15.18-18.6-32.29-21.27-38.74-6.61-11.19-11.76-17.47C159.36,197,173.79,184.08,178,178s15.57-27.35,12.53-39.51S179.33,121.83,183,89.73Z" transform="translate(-5.14 -40)"/><path d="M165.46,84.68s2.27,1.81,3.92.73l-1.13,1.29A5.72,5.72,0,0,1,165.46,84.68Z" transform="translate(-5.14 -40)"/><path d="M178.37,75.88a15.16,15.16,0,0,0-7.58,4.52c-2.37,2.77-2.27,3.16-2.47,4.46-.32,2.18-3,2.48-4.57,2.9-2.45.63-5,.74-3.64,3.13,1.5,2.7.17,3.12-1,3.24-.85.1-.55,1.67-.44,2.15,0,0-1.81.24-1.54,1.4s1.12,1.61.73,2.27-2.83,2.63-2.24,4.31,4.25,3.21,6,4.25c1.47.87,6.5,5.1,7.15,7.58C170.85,124,183,89.73,183,89.73Z" transform="translate(-5.14 -40)"/><path d="M155.33,135.27c5.51-2.27,10.9-5,12.09-8.15,2-5.32-.83-14.32-.83-14.32L183,89.73c-2.62,22.71.7,31.62,3.93,39.19-5.62,2.63-13.1,5.49-19.53,5.79C155.32,135.27,161.9,134.32,155.33,135.27Z" transform="translate(-5.14 -40)"/><path d="M32.13,115.06S21.9,117.43,20.19,119,5.7,128.75,5.7,128.75s-.31,9.19,6.71,9.95a67.28,67.28,0,0,0,19.12-.2C40.09,137.45,35.71,116.12,32.13,115.06Z" transform="translate(-5.14 -40)"/><path d="M140.11,53.83c1.09,1.46,1.93,4.83,1.67,7.68s1.22,4.86-.37,6.53-1.25,4.58.29,7.33c1.71,3.07,2.31,4.91-.23,5.3s-2.16.3-2.16.94.88,1.8-.78,2.68c0,0,.85,1.43-.34,2.21s-1.69,1.13-1.29,2.26.92,4.73-2.27,5.34-9-1.92-9.92-1.17.23,1.11-3.54,4,6.11,9.41,6.11,9.41-20.79-3-25.75-13.79c0,0,3.57-7.63,3.28-9.77,0,0,.56-.31.61-2.08,0,0,2.17-1.72,2-3,0,0,1.59-2.81.69-4.47a2.78,2.78,0,0,0,.21-2.41,6.35,6.35,0,0,1-.78-4c.21-1.77,9.57-6.08,10-6.73s2.29-1.75,2-2.8a1.4,1.4,0,0,1,.7-2C120.89,55,140.11,53.83,140.11,53.83Z" transform="translate(-5.14 -40)"/><path d="M103.93,86.74c2.89-5.93-2.21-18.25-3.37-24.34S103,43,115.22,42c20.91-1.75,29.63,9.49,25.13,13,0,0-15.47,2.08-18.92,16.58l-2.92,0s1.76-6.9-2.16-7.37c-3.71-.43-2.38,4.11-3,5.91s-3.84,4.47.15,5.25c0,0-1,3.51-5.54,6.19A10,10,0,0,0,103.93,86.74Z" transform="translate(-5.14 -40)"/><path d="M119.62,89.27c-3.93-4.22-3-4.53-3.16-7-.11-1.35,1.22-4.17,2.8-6.58,0,0-1.25,7.48,3.86,8.86,5.52,1.49,6.33,3.17,7.69,4.09a5.68,5.68,0,0,0,6.12.42c.39,1.24.65,4.28-2.36,5.18C131,95.34,121.13,90.9,119.62,89.27Z" transform="translate(-5.14 -40)"/><path d="M140.35,55s4.65-.71,4.65-5.4c0,0-2.35.78-5.77-1.88A37.17,37.17,0,0,0,132,42.69c-9.87-4.81-25.79-3.94-29.8,8.92s10.69,5.63,10.69,5.63Z" transform="translate(-5.14 -40)"/><path d="M133.16,180.28c2.56-1.05,5.91,2.24,10.92,3.9,6.31,2.08,6.31.85,6.31-.48,0-2.38-8.88-3.42-8.88-5.89,0-1,1.73-1.11,3.52-1.14,2.42,0,4.2.44,7.87,1.9,4.76,1.9,4,1.9,6.65,5.89s3.23,3.42,6.08,2.84,21.46-14.74,22.65-16.45c1.26,3.5,2.15,6.11,2.41,7.16,1.13,4.55-6.64,12.33-15,18.41s-10.44,4-16.33,5.31a40.13,40.13,0,0,1-14.2.37c-1.32-.39-13.68-6.07-14.26-12.13S132.37,180.6,133.16,180.28Z" transform="translate(-5.14 -40)"/><path d="M176.13,76.67s2.09,5.91,1.52,8.77-1.9,7.44-2.46,10.48a16,16,0,0,0,0,5.72s0-1.72,2.55-1.34,2.77,2.48,1.62,4-.76,6.11-4.68,4.58c0,0-4.12,3.62-3.15,11.21.53,4.19,4.21,6.89,1.85,14.51s-2.57,10.87,0,14.49,8.07,10.48,5,17.92A18,18,0,0,0,180,184.18c2.37,3.61,2.56,4.57,2.37,10.86,0,0,1.9-.76,3-7.25,0,0,4.93,7.63,3.6,13.16,0,0,5.13-3.44,5.7-7.24s4-10.68,4.56-10.88-2.85,5.53,0,9.73c0,0-1-1.9,1.7-5.53s5.7-9.34,4.56-13.15-1.14-10.48-.76-11.44a18.45,18.45,0,0,0,2.66,9.15s-1.33-5,0-7.62,1.33-8.39,0-12-2.09-5.34,0-13.15,5.88-10.3,4.37-19.64-6.27-12.2-4.94-20-5.51-20.39-17.54-23.83C184.68,74,177.47,75.91,176.13,76.67Z" transform="translate(-5.14 -40)"/><path d="M165.46,147.24c2.16,5.88-2.39,15.57-15.07,15.57s-40,0-48.75-2.27-11-.76-14.43-2.67S48.1,125.22,45.06,122.18s-8-10.63-6.08-17.84,11.78,1.9,11.78,1.9-5.32,6.45,7.6,15.94,33.79,16.32,37.21,21.27c0,0,19-1.14,27.71-.39S159,129.78,165.46,147.24Z" transform="translate(-5.14 -40)"/><path d="M269.88,366.61s-4.39-4-9.82-1.69-4,7-1.83,10.09,9.13,8.37,11.06,11.47,7.31,9.84,12.63,9.49,13.1-5.94,5.7-12.75-9.16-6.85-10.13-8.66S272.5,369.19,269.88,366.61Z" transform="translate(-5.14 -40)"/><path d="M11.27,137.75c-2.92-.54-6.58-2.86-6.08-6.75s2.79-7.42,6.08-12.74,8.61-9.63,14.17-14.68S32,98.26,36.58,97s2.22-.83,9.24-1.59,4.94-.57,8.17,1.33,8.73,5.68,6.84,8.73c-1,1.52-8.46,11-12.64,10.71s-6.23-2-8.29-3.05-4.56-4.42-6.72-2-4.44,16.32-9,19.83S16.39,138.7,11.27,137.75Z" transform="translate(-5.14 -40)"/></svg>