<svg id="Layer_1" data-name="Layer 1" xmlns="http://www.w3.org/2000/svg" viewBox="0 0 276.52 305.07"><path d="M150.68,102.47a31.48,31.48,0,0,0,6.24-6c2.45-3.3,7-7.21,9.82-8.07s6.71-.84,7.67.85a20.41,20.41,0,0,1,2.18,7c.12,2-1.59,2.93-1.59,3.3s-.54,4.67-3.58,5.39-9.75,2.64-13.54,7Z" transform="translate(-7.47 -80)"/><path d="M146.83,105.11l3.21-3.39s8.32,9.79,9.57,10.72l-3.33,3.31Z" transform="translate(-7.47 -80)"/><path d="M116.23,128.74s27.53-22.25,31.29-25.18c0,0,7.91,10.18,10.36,11.57l-27.1,27.93Z" transform="translate(-7.47 -80)"/><path d="M73.71,300.62c5.63,9.91,17.06,18.35,27.43,15.78s21.54-30.83,21.54-30.83,21.29-50.4,16.12-94.28Z" transform="translate(-7.47 -80)"/><path d="M125.67,355.36a44.11,44.11,0,0,0-1.27,15.18h12.11s.73-4,4.35-2,2,3.43,11,3.43h15.31s3.49-7.95-4.11-9.39-16.8-4.17-17.34-8.5S125.67,355.36,125.67,355.36Z" transform="translate(-7.47 -80)"/><path d="M21.65,340.84A43.63,43.63,0,0,0,7.47,346l5.05,10.87s3.89-1,3.6,3.08-2.26,3.21,1.51,11.33L24,385.07s8.59-.18,6.72-7.6-3.26-16.84.41-19.13S21.65,340.84,21.65,340.84Z" transform="translate(-7.47 -80)"/><path d="M126.76,83.47c2.22,1.43,4,6.42.06,8.81s-5.48,11.29-5.48,11.29l-4.69,11.15-12.83,6.56L103,120a20.42,20.42,0,0,1-1.76-3.46,8.11,8.11,0,0,0-1.51-2.9A7.32,7.32,0,0,1,98,109.92c-.48-2.21-1.48-.56-1.92-5.67s.71-4.77.39-6.68.32-5.41,1.35-6.81c0,0-.69-4.69,5.77-7.88C109.51,80,119.37,78.69,126.76,83.47Z" transform="translate(-7.47 -80)"/><path d="M127.54,91.35s7.92-3.31,2.88-10.07c0,0-1.58,2-6.43.33-5.63-2-16-3.15-22.72,2.67l12.91,5.45Z" transform="translate(-7.47 -80)"/><path d="M128.84,89.49a10.84,10.84,0,0,1,2.72,6c.3,2.36,1.85,3.74.85,5.37s-.2,4,1.55,5.93c1.94,2.19,2.74,3.57.74,4.34s-1.69.62-1.57,1.15,1,1.31-.16,2.33c0,0,.94,1,.12,1.85s-1.18,1.22-.64,2.08,1.59,3.66-.9,4.75-7.65,0-8.28.81.24,3.08-2.32,6.12-2.5,4.32-2.5,4.32-9.84-2.84-15.79-10.75A5.57,5.57,0,0,0,103,120s2.37-.63,2.36-2.46a3.74,3.74,0,0,0,4.2-3s1-2.49-.9-2.39c-1.06,0-.83-2.39-1.23-2.89a7.52,7.52,0,0,1-1.19-3.73c-.15-1.48.45-4.52,4.29-3.36,1.49.45,2.4,3.34,2.06,5.84a9.72,9.72,0,0,1,1.84,1.64,16.54,16.54,0,0,1,.55-2.39c.27-.61,1.55-1.84,1.1-2.63a1.16,1.16,0,0,1,.22-1.71c.49-.37,1.82-1.28,1.41-2.27s.58-1.34,1-2.11,1.26-1,1-2.17-1.48-1.8.52-1.93,2,.13,3-.81,2.74-.71,3.81-1.44A7,7,0,0,0,128.84,89.49Z" transform="translate(-7.47 -80)"/><path d="M133.4,112c-1.42-1.2-3.06,0-4,.48-1.15.65-3.91,1.48-4.55-.76-.45-1.61,2.3-1.31,1.55-.08a1.17,1.17,0,0,0-.27-1.72c-1-.7-2.59.65-2.41,2.1s1.28,3.24,4.84,3.38,4.79-.83,5.17-1.84A1.36,1.36,0,0,0,133.4,112Z" transform="translate(-7.47 -80)"/><path d="M74.93,266.49s-5.38,11.68-16.63,27.38-39.15,46.45-39.15,46.45,5.75,14.21,18.6,20.89c0,0,38.65-44.32,41.59-50.68s37.07-45,44.28-55c14.45-20.19,15.18-60,15.18-60Z" transform="translate(-7.47 -80)"/><path d="M137.62,209.36s6.82,40.88,10.36,72.14-2.06,77.93-2.06,77.93l-23.36-2.06s4.5-48.25,4.33-57.6-9.62-60.3-9.62-60.3Z" transform="translate(-7.47 -80)"/><path d="M101.14,127.21l2.22-6s13.93,4.43,18.61,6,9.27,2.4,9.18,3.41a77.87,77.87,0,0,1-1.84,7.61c-.18.27,4.13.64,4.13.64l6.6,17.71Z" transform="translate(-7.47 -80)"/><path d="M101.14,127.21s-6.69,9.86-7.06,12.28S89.31,151.2,91,159.57s4.5,16.51,4.91,25.29,0,20.34-1.24,23.28-9.17,13-9.36,21.46.8,10,0,13.89-18,36-19.44,39.18c0,0,31.37-7.74,58.9-43.7,13.19-17.26,13.39-37.8,15.31-48.81s2.18-9.3,2.42-17.62-.57-15.33-4.93-22.71Z" transform="translate(-7.47 -80)"/><path d="M185.84,200.62s5.18,1.27,6.77-1.4,4.18-4.39,4.11-6.6-.63-5.1-1.9-5.76-5.35,0-5.35,0Z" transform="translate(-7.47 -80)"/><path d="M137.2,159.7c-4.92-5.87-23.16-20.55-30.28-23.12l-4.07,25.88c7.47,5.37,27.9,23.92,36.85,29.4.13-.57.25-1.15.34-1.7,1.93-11,2.18-9.3,2.42-17.62a61.79,61.79,0,0,0-.24-8.24A36.67,36.67,0,0,1,137.2,159.7Z" transform="translate(-7.47 -80)"/><path d="M177.58,199.09l7.85,2.16A36.48,36.48,0,0,0,191,186.32L182.79,184Z" transform="translate(-7.47 -80)"/><path d="M106.92,134.38C114,137,132.28,151.62,137.2,157.5s25.5,19.27,35.23,22.39,14.13,4.4,14.13,4.4-2.2,12.11-6.6,16.33c0,0-31.06-7.53-37.46-9.55s-31.25-22.56-39.65-28.61Z" transform="translate(-7.47 -80)"/><path d="M174.36,159.57c-1.75-7.32-7.16-15.35-8.53-21.7-1.28-5.9-2-21.11-2.39-24.23s-.78-3.85-1.85-7.34-3.11-7-1.82-7.71,2.75,4,3.3,4,2.07-11.74,3.78-12.47,4.11-2,5.4,1.1.18,7.52-.19,9.91-1.84,9.35-1.1,11.92,5.52,14,6.62,19.08,1.84,10.25,11.89,20.08Z" transform="translate(-7.47 -80)"/><path d="M174.36,159.57l15.11-7.32c-10.05-9.83-10.8-14.94-11.89-20.08-.29-1.32-.82-3-1.46-5h0a17.49,17.49,0,0,1-11.33,3.16h0a70.76,70.76,0,0,0,1,7.5C167.2,144.22,172.61,152.25,174.36,159.57Z" transform="translate(-7.47 -80)"/><path d="M201.47,129.09a17,17,0,0,1,5-5.27c2.93-1.73,7.79-2.74,10.36-3s2.91,3.21,4.66,4.68,6.26,4.77,8.19,9.27.37,12-3.21,15.87-7.71,8.07-14.87,7.52-8.44-1.19-9.54-.64a7.85,7.85,0,0,1-2.29.69l1.83-5Z" transform="translate(-7.47 -80)"/><path d="M193.23,143.06s-4,8.32-8.32,11.13c-6.4,4.21-20.67,2.7-23.32,10l36.9,11.86s1.71-2.08,1.28-7.58-1-10.65,3.36-14.68S193.23,143.06,193.23,143.06Z" transform="translate(-7.47 -80)"/><path d="M140,368.84s8.89-8.9,12.84-16.6,11.3,2.57,11.3,2.57-9.72,18.48-12.81,18.92S140,368.84,140,368.84Z" transform="translate(-7.47 -80)"/><path d="M164.12,354.81s3.95,3.59,2.74,8.8a31.34,31.34,0,0,0-.68,11.14l-2.74.22-1-11.53s-5.4,5.55-6.66,8.48.31,3.66-13.79,4.84c-6.92.58-10.06-1.22-8.87-3.49.78-1.51,4.31-3.32,6.82-4.43C140,368.84,152.09,372.19,164.12,354.81Z" transform="translate(-7.47 -80)"/><path d="M261,351.81s15.81,19.57,18.92,16.63,2.94-7.33.74-11.75-14.44-16.37-14.44-16.37Z" transform="translate(-7.47 -80)"/><path d="M193.23,143.06a51.36,51.36,0,0,1-3.76,6.31c0,3.21,1.22,5.44,3.63,5.92a47.75,47.75,0,0,0,7.83,1.31,10.94,10.94,0,0,1,2.2-2.77C207.54,149.79,193.23,143.06,193.23,143.06Z" transform="translate(-7.47 -80)"/><path d="M249.67,340.8c3.87,3.49,11.93,11.75,15.42,14.86s5.88,3.12,6.79,0c1.17-4.05.38-8.45-2-11s-7.16-9.16-9.92-11S249.67,340.8,249.67,340.8Z" transform="translate(-7.47 -80)"/><path d="M215.14,128.26a10.67,10.67,0,0,0-12-.37c-4.15,2.82-9.78,8.2-11.86,14.32s-1.1,10.88,2.57,11.62,9.54,2.57,14.92,0a1.07,1.07,0,0,0,1,1.32c1.22.14,2.08-1,3.42-1s3.8-2.57,1.72-4.4c0,0,2.78-.74,4.71-4.77C220.61,142.88,224.32,136.15,215.14,128.26Z" transform="translate(-7.47 -80)"/><path d="M270.78,303.92c-13.22-4.77-62.75-32.14-74.86-43.22S185.64,247.4,184.17,239,176.47,225,175,218.41s25.32-28.62,24.77-49.17a12.64,12.64,0,0,0-.88-4.5c-1.94-1.65-8.41-2-18.48-1-11.28,1.1-11.58-5-11.58-5s-17.62,6-14.63,20-4.63,21.76-6,30.94-2.89,19.08-9.13,29.72S125.82,258.78,120.68,272s-2.2,10.65,0,25,11.38,49.54,9.18,57.25,1.64-.25,10.58,3.8c7.08,3.21,9.6-2.34,11.81-.13s3.3,2.2,8.07,2.2,4.77-2.57,8.81,0,1.09,0,11.37,0,9.17-2.07,14.68-1.47c6.28.68,4.4.74,12.48-2.2s5.14-7.71,15.78-4,7.33,1.1,11.38-1.83,5.51-8.44,10.63-6.61,5.14,1.83,11.75-2.56,2.57-5.14,8.07-5.51,2.58.37,6.61-6.61,6.6-1.46,9.17-3.67,2.94-8.81,2.94-11S284,308.69,270.78,303.92Z" transform="translate(-7.47 -80)"/><path d="M170.64,171.94c9.52,1.24,19.06,2.32,28.65,2.85a26.14,26.14,0,0,0,.48-5.55,12.64,12.64,0,0,0-.88-4.5c-1.94-1.65-8.41-2-18.48-1-11.28,1.1-11.58-5-11.58-5s-9.67,3.3-13.46,10.68C160.46,170.29,165.55,171.28,170.64,171.94Z" transform="translate(-7.47 -80)"/><path d="M189.31,184.83c4.42.11,8.26,0,10.46-3.85,1.39-2.43,2.38-9.35,0-11.74s-5-4.22-14-3.67-14.12,3-22.6-.67c-6.37-2.75-8-1.9-13.91-3.37s-9.72-3.3-12.11-5.13-5.32-5.69-12.29-3.49-19.45,5.51-13.21,7.89,11.18,1.47,14.86,1.47,6.79,1.83,9.54,3.48,18.35,13,23.67,14.32S187.3,184.79,189.31,184.83Z" transform="translate(-7.47 -80)"/><path d="M189.31,186.3a20.31,20.31,0,0,0,6-1.16c2.51-4.95,4.26-9.37,4.43-14.45-2.38-2.37-5-4.2-13.93-3.65s-14.12,3-22.6-.67a31.05,31.05,0,0,0-4.36-1.57c-3.35,3.22-6,7.78-4.66,13.87,0,.11.05.23.07.35,2.23,1.26,4.18,3.66,5.5,4C165.09,184.29,187.3,186.26,189.31,186.3Z" transform="translate(-7.47 -80)"/><path d="M185.82,165.57c-9,.55-14.12,3-22.6-.67a31.35,31.35,0,0,0-9.93-2.57h0c-.42,8.13-5.77,11.07-5.77,11.07h0c4.74,3.09,9.68,6,12.25,6.67,5.32,1.29,27.53,4.72,29.54,4.76,4.42.11,8.26,0,10.46-3.85,1.39-2.43,2.38-9.35,0-11.74S194.82,165,185.82,165.57Z" transform="translate(-7.47 -80)"/><path d="M129.47,152.47c-2,.05-7.9-3.45-8.42-3.72s-1.59,2.34,3.78,5.17S129.47,152.47,129.47,152.47Z" transform="translate(-7.47 -80)"/><path d="M110.78,115.75c1.61,7,9,10.08,11.9,11.21.52-1.6.17-2.4.59-2.9.14-.18.51-.26,1-.29C113.31,123.59,110.78,115.75,110.78,115.75Z" transform="translate(-7.47 -80)"/><path d="M125.83,123.75h0c1,0,2.08,0,3.14,0A29.62,29.62,0,0,0,125.83,123.75Z" transform="translate(-7.47 -80)"/><path d="M147.77,342.14c-1.15-6.88-2.74-13.62-4.55-20.29s-3.82-13.25-6-19.78-4.5-13-7-19.4c2.05,6.55,3.89,13.17,5.59,19.82s3.24,13.32,4.55,20,2.39,13.45,3,20.19c.31,3.36.51,6.73.52,10.06,0,2.09-.08,4.15-.27,6.19a10,10,0,0,0,5.61-1.11c0-1.77-.07-3.53-.21-5.27C148.81,349.05,148.35,345.57,147.77,342.14Z" transform="translate(-7.47 -80)"/><path d="M169.55,327.35q-5.78-9.66-11-19.67c-3.49-6.66-6.86-13.4-10-20.28,2.65,7.06,5.57,14,8.64,20.92S163.53,322,167,328.78s7.09,13.37,11,19.87q3.44,5.72,7.17,11.23a31.59,31.59,0,0,0,5.81-1.11c-3.22-4-6.31-8.24-9.29-12.51Q175.32,337.05,169.55,327.35Z" transform="translate(-7.47 -80)"/><path d="M166.17,351.7c-1.41-4.52-3-8.93-4.77-13.29s-3.56-8.68-5.47-13-3.87-8.53-5.93-12.73c1.78,4.32,3.47,8.69,5.08,13.07s3.16,8.79,4.59,13.23,2.76,8.91,3.85,13.4c.54,2.23,1,4.47,1.38,6.71a3.88,3.88,0,0,1,3.37.43c-.06-.33-.14-.67-.21-1C167.52,356.24,166.88,354,166.17,351.7Z" transform="translate(-7.47 -80)"/><path d="M252.25,315.05a266.42,266.42,0,0,1-26.05-14.8c-8.44-5.4-16.67-11.19-24.69-17.26s-15.86-12.39-23.41-19.07c7.12,7.13,14.6,13.92,22.26,20.5s15.58,12.89,23.77,18.86a267.22,267.22,0,0,0,25.56,16.64,160.73,160.73,0,0,0,21.62,10.33c.18-.32.36-.65.57-1,3.32-5.72,5.64-3,7.78-3.11l.19-.66A142.46,142.46,0,0,1,252.25,315.05Z" transform="translate(-7.47 -80)"/><path d="M236.71,335.6A171.2,171.2,0,0,1,216,320.21a301.72,301.72,0,0,1-36.2-37.54,303.14,303.14,0,0,0,33.71,40.25,177.12,177.12,0,0,0,20.15,17.24q3.31,2.41,6.83,4.6a4.7,4.7,0,0,1,5-.84c3.79,1.35,4.8,1.7,7.69,0-1.76-.67-3.53-1.42-5.27-2.23A109.34,109.34,0,0,1,236.71,335.6Z" transform="translate(-7.47 -80)"/><path d="M208.15,333.37c-4-4.56-7.83-9.32-11.43-14.23s-7-10-10.16-15.22c2.87,5.39,6.05,10.62,9.41,15.74s6.94,10.09,10.77,14.89a140.67,140.67,0,0,0,12.4,13.69c1.56,1.47,3.17,2.91,4.82,4.3,4.7,1.6,6.51,1.89,7.51,1.45A85.7,85.7,0,0,1,221,346.2,137.59,137.59,0,0,1,208.15,333.37Z" transform="translate(-7.47 -80)"/><path d="M198.46,341a263,263,0,0,1-16.7-22.29C176.54,311,171.63,303.05,167,295s-9.07-16.35-13.12-24.79c3.55,8.66,7.49,17.17,11.67,25.56s8.64,16.68,13.43,24.77a272.82,272.82,0,0,0,15.62,23.6c3.39,4.52,7,8.93,10.81,13.15l2.27-.84a15.82,15.82,0,0,0,3.56-1.8A166.05,166.05,0,0,1,198.46,341Z" transform="translate(-7.47 -80)"/><path d="M185.84,200.62s5.18,1.27,6.77-1.4,4.18-4.39,4.11-6.6-.63-5.1-1.9-5.76-5.35,0-5.35,0Z" transform="translate(-7.47 -80)"/><path d="M177.58,199.09l7.85,2.16A36.48,36.48,0,0,0,191,186.32L182.79,184Z" transform="translate(-7.47 -80)"/><path d="M171.57,181.1c-2.74-.7-15.67-2.75-19.47-4.82-1.29,6.68-.73,10.21-3,16.64,10.69,2.7,30.82,7.7,30.82,7.7,4.4-4.22,6.6-16.33,6.6-16.33A134.31,134.31,0,0,1,171.57,181.1Z" transform="translate(-7.47 -80)"/><path d="M161.59,98.43c2.17,4.51,5.39,6.66,5.39,4.51s-3-8.38-3-8.38Z" transform="translate(-7.47 -80)"/></svg>