<svg id="Layer_1" data-name="Layer 1" xmlns="http://www.w3.org/2000/svg" viewBox="0 0 581 100.11"><defs><style>.cls-1{fill:#d8d8d8;}.cls-2{fill:#e9feff;}.cls-3{fill:#005284;}.cls-4{fill:#fff;}</style></defs><rect class="cls-1" width="581" height="96" rx="19.3"/><rect class="cls-2" x="19.5" y="12" width="74" height="73" rx="8.72"/><rect class="cls-3" x="118.33" y="19" width="437" height="22" rx="7.94"/><rect class="cls-3" x="117.5" y="53" width="437" height="22" rx="7.94"/><path class="cls-3" d="M55,50h0A23.5,23.5,0,0,1,78.5,73.5V85a0,0,0,0,1,0,0h-47a0,0,0,0,1,0,0V73.5A23.5,23.5,0,0,1,55,50Z"/><circle class="cls-3" cx="54" cy="36.5" r="16.5"/><path d="M64,53.55c-.12,2.15-2.4,3.15-3.68,3.31a4.7,4.7,0,0,1-1.5-.08,8.45,8.45,0,0,1-2.94-1.15c-1.31-.74-3-1.89-2.89-2.16s1.85.89,3,.16c.66-.42.47-1,1.1-1.94a4.16,4.16,0,0,1,3.6-1.82A3.75,3.75,0,0,1,64,53.55Z" transform="translate(-10.5 -10)"/><path d="M62.08,53.31C62,55.46,64.14,56.7,65.39,57a5,5,0,0,0,1.5.08,8.44,8.44,0,0,0,3-.84c1.37-.6,3.21-1.56,3.1-1.84s-1.94.68-3-.16c-.61-.48-.36-1.08-.9-2A4.16,4.16,0,0,0,65.76,50,3.75,3.75,0,0,0,62.08,53.31Z" transform="translate(-10.5 -10)"/><path class="cls-4" d="M146.13,49.26,144,46.38l-2.88,2.14L139,45.65l-5.75,4.27L131.11,47l-8.63,6.41-2.13-2.87-5.75,4.27-8.54-11.5-2.87,2.14-2.14-2.88L95.3,46.88l2.14,2.88-2.88,2.13,19.22,25.87-2.87,2.13L108.77,77l-8.62,6.4,2.14,2.88,1.07,1.44,3.2,4.31,2.87-2.14,2.14,2.87,2.87-2.13,4.27,5.75,2.88-2.14,4.27,5.75,2.87-2.14,4.27,5.75,2.88-2.14,4.27,5.75,2.13,2.88,25.87-19.22L171,88.75l-6.41-8.62L167.49,78l-6.41-8.63L164,67.24,149,47.12Z" transform="translate(-10.5 -10)"/><rect x="107.02" y="46.59" width="3.58" height="42.96" transform="translate(-29.62 68.34) rotate(-36.62)"/><rect x="95.66" y="44.4" width="7.16" height="3.58" transform="translate(-18.46 58.31) rotate(-36.62)"/><rect x="112.44" y="41.24" width="3.58" height="32.22" transform="translate(-22.16 69.45) rotate(-36.62)"/><rect x="114.96" y="52.36" width="7.16" height="3.58" transform="matrix(0.8, -0.6, 0.6, 0.8, -19.4, 71.39)"/><rect x="127.47" y="54.2" width="3.58" height="10.74" transform="translate(-20.52 78.85) rotate(-36.62)"/><rect x="122.49" y="49.89" width="10.74" height="3.58" transform="translate(-16.09 76.46) rotate(-36.62)"/><rect x="138.22" y="50.66" width="3.58" height="10.73" transform="translate(-16.29 84.57) rotate(-36.62)"/><rect x="133.6" y="47.43" width="7.16" height="3.58" transform="translate(-12.78 81.54) rotate(-36.62)"/><rect x="141.84" y="47.1" width="3.58" height="3.58" transform="translate(-11.31 85.31) rotate(-36.62)"/><rect x="153.25" y="45.72" width="3.58" height="25.06" transform="translate(-14.64 93.97) rotate(-36.62)"/><rect x="161.06" y="69.38" width="3.58" height="10.74" transform="translate(-22.95 101.88) rotate(-36.62)"/><rect x="164.59" y="80.14" width="3.58" height="10.74" transform="translate(-28.67 106.11) rotate(-36.62)"/><rect x="138.04" y="97.27" width="32.22" height="3.58" transform="matrix(0.8, -0.6, 0.6, 0.8, -39.16, 101.49)"/><rect x="111.62" y="78.47" width="3.58" height="3.58" transform="translate(-35.99 73.49) rotate(-36.62)"/><rect x="100.16" y="79.87" width="10.74" height="3.58" transform="translate(-38.38 69.06) rotate(-36.62)"/><rect x="104.07" y="84.52" width="3.58" height="7.16" transform="translate(-42.16 70.53) rotate(-36.62)"/><rect x="110.15" y="88.49" width="3.58" height="3.58" transform="translate(-42.26 74.58) rotate(-36.62)"/><rect x="116.23" y="88.87" width="3.58" height="7.16" transform="translate(-42.35 78.64) rotate(-36.62)"/><rect x="123.37" y="92.49" width="3.58" height="7.16" transform="translate(-43.1 83.61) rotate(-36.62)"/><rect x="130.51" y="96.1" width="3.58" height="7.16" transform="translate(-43.84 88.58) rotate(-36.62)"/><rect x="137.66" y="99.71" width="3.58" height="7.16" transform="translate(-44.59 93.56) rotate(-36.62)"/></svg>