<svg id="Layer_7" data-name="Layer 7" xmlns="http://www.w3.org/2000/svg" viewBox="0 0 1254.64 389.26"><defs><style>.cls-1{fill:#fff;}</style></defs><path class="cls-1" d="M303.78,56.11s-9.95,0-9.29,26.68c.63,25,4.16,34.27,4.59,64.58a6.47,6.47,0,0,1-5.31,6.6c-5.63.85-13.66,3.65-13.66,12.77,0,8.82,7.34,10.91,12.79,11.25a6.36,6.36,0,0,1,5.84,6.42s1.27,54.43,1.37,54.71c1,2.61,5.12,7.74,9.8,6.5a10,10,0,0,0,7-6.5c1-3,.89-34.32.88-35.35-.1-10.24-1.59-24.57-1.9-27.6a87.64,87.64,0,0,1,23.93-2.63l.55,0L379.5,173a6.07,6.07,0,0,0,2.95-.82,22.49,22.49,0,0,0,9.3-11.24c1.82-4.5-1.49-9.43-6.17-9.08-19.09,1.43-64.49,4.55-69.48,2.26-6.34-2.91-4.42-71.3-4.42-71.3S312.27,56.26,303.78,56.11Z" transform="translate(-12.68 -25.29)"/><path class="cls-1" d="M411.2,57.33a6.18,6.18,0,0,0-12.05.51c-.8,3.91-1.3,22.89-1.68,29.63-1.14,20.26-.67,40.59-.29,60.88.41,21.38.6,51.32.33,60.41-.13,4.2.06,8.4-.08,12.6a27,27,0,0,0,.19,6.26,20.15,20.15,0,0,0,4.3,9,6.07,6.07,0,0,0,8.94.88l0,0c3.77-3.6,2.63-13.57,2.43-15.18-.07-.59-.39-3.1-.88-6.21a39.54,39.54,0,0,1-.5-4.14,30,30,0,0,1,0-3.62c.26-4.64-1.23-35.79-1.49-41.69a483.17,483.17,0,0,1,.66-53c.62-7.91-.17-11.17.11-18.47.44-11.27.17-7.16.43-10.74.18-2.42.44-17.52.11-24A25.48,25.48,0,0,0,411.2,57.33Z" transform="translate(-12.68 -25.29)"/><ellipse class="cls-1" cx="430.35" cy="118.1" rx="9" ry="13.65"/><path class="cls-1" d="M450.08,208.05c-.61,20-.61,26.62-4.54,28.41-2.45,1.11-5.53-.07-7.3-1.5-2.54-2.05-3.08-5.16-3.33-20.58-.19-11.86.21-4.84.45-22,.11-8,.05-11.41,2.55-13.69,2.33-2.12,6.56-3,9.4-1.26C451.18,179.78,450.75,185.78,450.08,208.05Z" transform="translate(-12.68 -25.29)"/><path class="cls-1" d="M509,196.52c-.89-.45-2.15-1.07-3.69-1.74a20.47,20.47,0,0,0-5.1-1.85c-3.14-.39-5.74,1.37-6.73,2a14.37,14.37,0,0,0-5.78,9.59,12.93,12.93,0,0,0,1.53,8.49c2.42,3.87,6.68,4.94,9,5.48,12.07,2.83,27.53-4.08,32.94-8.44a7.17,7.17,0,0,1,10.73,1.09c2.58,3.3,1.81,7.9.36,10.57a10,10,0,0,1-3.28,3.5c-6.32,4.17-45.13,18.81-61.6-1.53a25.46,25.46,0,0,1-4.74-9.1c-3.1-11.27,2.17-24.39,11.16-31.74,1.23-1,14.47-11.52,26.76-5.41a21.92,21.92,0,0,1,9.13,9.09,8.61,8.61,0,0,1-3.09,9.5C513.16,198.4,509.26,196.65,509,196.52Z" transform="translate(-12.68 -25.29)"/><path class="cls-1" d="M568.92,29.56c-1.29,2.46,1.61,22.12,1.66,23.65.34,11.2,1.22,60.34-6.83,128-.2,6.9-1.31,50.33,7.62,53.09a13.21,13.21,0,0,0,2.43.46c8.49.89,14.69-5.67,15-6,.18-.19.35-.39.52-.58,2-2.47,16.88-20.48,31.82-23.89a8.75,8.75,0,0,1,10.27,6.09c2,6.53,6.57,15.93,16.09,15.93h27.18a8.66,8.66,0,0,0,5.85-2.3c2.25-2.07,4.9-5.31,4.49-8.88-.49-4.25-4.39-6.41-5.15-6.82a10.55,10.55,0,0,0-5.45-1.09c-12.27.58-31-5-31.57-8.54a8.3,8.3,0,0,1,.23-3.06c.91-2.7,2.44-5.11,10.55-11.22,2.15-1.62,3.77-2.77,3.9-2.86,8.37-6,18.75-18.77,15.86-24.64-1.34-2.72-5.46-3.83-8.54-3.6-7.84.57-10.25,9.87-24,21.24-2.38,2-4.45,3.46-5.84,4.41l-.11.07c-16.4,8.38-56.77,31.35-55.94,16.6.87-15.59,11.69-115.75,6-146.61-.12-.65-1.55-11.13-4.84-18.78C577.33,24,572.05,23.56,568.92,29.56Z" transform="translate(-12.68 -25.29)"/><path class="cls-1" d="M759.71,154.68c-9.57-8.18-21.88-6-24.48-5.52-17.09,3-32,20-33.33,39.56-.85,12.46,3.54,30.19,15.63,35.88,18.44,8.68,47.91-13.91,51.62-38.64C769.46,183.91,772,165.16,759.71,154.68Zm-4.13,29.13c-1,14.84-20.13,28.18-31,23.31-4.13-1.86-6-5.87-6.49-7.06-5.25-11.9,4.4-30.51,17.35-33.92,2.09-.55,8.84-1.91,14.21,2.34C756.15,173.59,755.64,182.91,755.58,183.81Z" transform="translate(-12.68 -25.29)"/><path class="cls-1" d="M790.72,176.12c-9.35,17.45-4.18,40,1.62,43.09a8.15,8.15,0,0,0,4.87.92c3.06-.57,4.9-3.34,5.57-4.34,5.6-8.41-1.42-22.19,3.64-32.19,3-5.87,8.85-8,16.59-10.75,18.73-6.7,41.55-2.7,46.18-7.92A8.58,8.58,0,0,0,871,161.7a10.17,10.17,0,0,0-1.18-6.73c-2.75-5.2-21.11-8.53-42-2.47C814.5,156.34,798.9,160.87,790.72,176.12Z" transform="translate(-12.68 -25.29)"/><path class="cls-1" d="M905.3,160.93a28.39,28.39,0,0,0,9.83,12.13A26.45,26.45,0,0,0,930,177.64c22.79.23,37.39-22.77,37.39-22.77s11.33-16,16-2.11a8.67,8.67,0,0,1,.37,3.82c-.41,3.38-1.11,11,.23,15.77,0,0,42.26,99-59.94,238.88a8,8,0,0,1-6.45,3.31c-6.73,0-10.51-8.05-6.35-13.56,25-33.13,83-122,62.12-210.82a8,8,0,0,0-12-5.28c-7.61,4.58-19,10.09-29.92,10.09-18.59,0-34.22-17.33-34.22-17.33-.6-.78-8-10.68-7.36-18.64a11.48,11.48,0,0,1,2.49-6.88,6.23,6.23,0,0,1,2.88-2.08C898.24,149.38,902.5,153.7,905.3,160.93Z" transform="translate(-12.68 -25.29)"/><path class="cls-1" d="M532.26,265v41.2h-5.12V265Z" transform="translate(-12.68 -25.29)"/><path class="cls-1" d="M545.14,284.61c0-3.06-.06-5.56-.24-8h4.59l.29,4.9h.12a10.4,10.4,0,0,1,9.41-5.57c3.94,0,10.05,2.45,10.05,12.59v17.67h-5.17V289.14c0-4.77-1.71-8.75-6.59-8.75a7.42,7.42,0,0,0-6.94,5.5,8.27,8.27,0,0,0-.35,2.51v17.79h-5.17Z" transform="translate(-12.68 -25.29)"/><path class="cls-1" d="M605.88,262.79v35.76c0,2.63.06,5.62.23,7.64h-4.64l-.24-5.13h-.12a10.45,10.45,0,0,1-9.7,5.8c-6.88,0-12.17-6.05-12.17-15-.06-9.85,5.82-15.9,12.76-15.9,4.35,0,7.29,2.14,8.58,4.53h.12V262.79Zm-5.18,25.86a10.14,10.14,0,0,0-.23-2.26,7.69,7.69,0,0,0-7.47-6.24c-5.35,0-8.53,4.89-8.53,11.43,0,6,2.83,10.94,8.41,10.94a7.85,7.85,0,0,0,7.59-6.42,10,10,0,0,0,.23-2.32Z" transform="translate(-12.68 -25.29)"/><path class="cls-1" d="M641.8,298.12c0,3.06.06,5.75.24,8.07h-4.59l-.29-4.83H637a10.64,10.64,0,0,1-9.41,5.5c-4.47,0-9.82-2.56-9.82-13V276.6H623V293c0,5.62,1.64,9.41,6.35,9.41a7.49,7.49,0,0,0,6.82-4.89,8.21,8.21,0,0,0,.47-2.75V276.6h5.17Z" transform="translate(-12.68 -25.29)"/><path class="cls-1" d="M653.21,300.69a13.18,13.18,0,0,0,6.82,2.14c3.77,0,5.53-2,5.53-4.4s-1.47-4-5.29-5.44c-5.12-1.9-7.53-4.83-7.53-8.38,0-4.77,3.71-8.68,9.82-8.68a13.89,13.89,0,0,1,7,1.83l-1.3,3.92a10.68,10.68,0,0,0-5.82-1.71c-3.06,0-4.76,1.83-4.76,4,0,2.45,1.7,3.55,5.41,5,4.94,2,7.47,4.53,7.47,8.93,0,5.2-3.88,8.86-10.65,8.86a15.76,15.76,0,0,1-8-2Z" transform="translate(-12.68 -25.29)"/><path class="cls-1" d="M687,268.11v8.49h7.41v4.1H687v15.95c0,3.67,1,5.75,3.88,5.75a11.34,11.34,0,0,0,3-.36l.23,4a12.12,12.12,0,0,1-4.58.73,7,7,0,0,1-5.59-2.26c-1.47-1.59-2-4.22-2-7.7V280.7h-4.41v-4.1h4.41v-7.09Z" transform="translate(-12.68 -25.29)"/><path class="cls-1" d="M703.72,285.83c0-3.48-.06-6.47-.24-9.23H708l.18,5.81h.23c1.3-4,4.41-6.48,7.88-6.48a5.48,5.48,0,0,1,1.47.18v5.08A7.59,7.59,0,0,0,716,281c-3.65,0-6.23,2.88-6.94,6.91a15.5,15.5,0,0,0-.24,2.51v15.77h-5.11Z" transform="translate(-12.68 -25.29)"/><path class="cls-1" d="M732.47,268.29a3.11,3.11,0,0,1-3.29,3.3,3.15,3.15,0,0,1-3.12-3.3,3.22,3.22,0,0,1,3.24-3.36A3.13,3.13,0,0,1,732.47,268.29Zm-5.76,37.9V276.6h5.18v29.59Z" transform="translate(-12.68 -25.29)"/><path class="cls-1" d="M746.88,292.38c.12,7.27,4.59,10.27,9.76,10.27a18.2,18.2,0,0,0,7.88-1.53l.88,3.85a22.38,22.38,0,0,1-9.46,1.83c-8.77,0-14-6-14-14.91s5.06-16,13.35-16c9.29,0,11.76,8.5,11.76,13.94a20.74,20.74,0,0,1-.18,2.51Zm15.17-3.86c.06-3.42-1.35-8.74-7.17-8.74-5.24,0-7.53,5-7.94,8.74Z" transform="translate(-12.68 -25.29)"/><path class="cls-1" d="M776.28,300.69a13.18,13.18,0,0,0,6.82,2.14c3.76,0,5.53-2,5.53-4.4s-1.47-4-5.3-5.44c-5.11-1.9-7.52-4.83-7.52-8.38,0-4.77,3.7-8.68,9.82-8.68a13.89,13.89,0,0,1,7,1.83l-1.3,3.92a10.71,10.71,0,0,0-5.82-1.71c-3.06,0-4.76,1.83-4.76,4,0,2.45,1.7,3.55,5.41,5,4.94,2,7.46,4.53,7.46,8.93,0,5.2-3.88,8.86-10.64,8.86a15.77,15.77,0,0,1-8-2Z" transform="translate(-12.68 -25.29)"/><path class="cls-1" d="M836,265h5.11v36.74H858v4.46H836Z" transform="translate(-12.68 -25.29)"/><path class="cls-1" d="M867.24,265h5.12v36.74h16.93v4.46h-22Z" transform="translate(-12.68 -25.29)"/><path class="cls-1" d="M923.92,304.85a24.66,24.66,0,0,1-10.46,1.95c-11.18,0-19.59-7.33-19.59-20.84,0-12.9,8.41-21.64,20.7-21.64,4.94,0,8.06,1.1,9.41,1.83l-1.23,4.34a18,18,0,0,0-8-1.71c-9.29,0-15.46,6.17-15.46,17,0,10.09,5.58,16.57,15.23,16.57a19.83,19.83,0,0,0,8.35-1.71Z" transform="translate(-12.68 -25.29)"/><path class="cls-1" d="M223,61.81v86.57a5.63,5.63,0,0,1-5.37,5.74q-49.41,1.32-100.32,1.8-53.11.5-104.65,0c-.22-.42,132.77,7.62,205,10a5.61,5.61,0,0,1,5.33,5.72v94a5.63,5.63,0,0,0,5.52,5.74h4.3a5.63,5.63,0,0,0,5.52-5.74V61.81a5.63,5.63,0,0,0-5.52-5.74h-4.3A5.63,5.63,0,0,0,223,61.81Z" transform="translate(-12.68 -25.29)"/><path class="cls-1" d="M1244.56,148.82c-3.56.58-14.62,3.45-17.83,4.35a22.28,22.28,0,0,1-4.1.78c-1.41.13-2.46.09-2.68.1-23.5.9-52.92,1.88-69.54,1.73-33.18-.31-66.17.75-98.44.14a7.91,7.91,0,0,1-7.58-8.06V66.34c0-4.36-3.14-8.3-7.33-8.49a7.81,7.81,0,0,0-8,8V264.63c0,4.36,3.13,8.3,7.32,8.49a7.81,7.81,0,0,0,8-8V175.69a7.91,7.91,0,0,1,7.52-8.05c48.25-1.36,123.39-2.63,168.71-3.22.12,0,1.48-.09,3.34,0,0,0,1.59,0,3.17.2,3.72.35,15,3.44,17.43,4,10,2.22,22.76-1,22.76-9.86C1267.32,151.14,1254.81,147.14,1244.56,148.82Zm4.72,13.25c-6.48.05-13.36-3.27-13.64-3.3h0a34.88,34.88,0,0,1,13.46-3.68c5.14-.16,11,1.49,11.08,3.14S1254.39,162,1249.28,162.07Z" transform="translate(-12.68 -25.29)"/></svg>