<?xml version="1.0" encoding="utf-8"?>
<!-- Generator: Adobe Illustrator 24.1.2, SVG Export Plug-In . SVG Version: 6.00 Build 0)  -->
<svg version="1.1" id="Layer_1" xmlns="http://www.w3.org/2000/svg" xmlns:xlink="http://www.w3.org/1999/xlink" x="0px" y="0px"
	 viewBox="0 0 486 480" style="enable-background:new 0 0 486 480;" xml:space="preserve">
<style type="text/css">
	.st0{fill:#7E3E00;}
	.st1{fill:#F7AE5D;}
</style>
<g>
	<path class="st0" d="M243,431.6c-0.1,0-0.1,0-0.2,0l-16.4-0.9c-41.8-2.3-80.8-16.5-112.9-41.1c-54.4-41.7-83.9-109.2-79-180.6
		c4.9-70.9,42-131.2,101.8-165.5c1.4-0.8,3.3-0.3,4.1,1.1c0.8,1.4,0.4,3.2-1.1,4.1c-58,33.3-94.1,91.9-98.8,160.8
		c-4.8,69.3,23.9,134.9,76.7,175.5c31.1,23.9,68.9,37.6,109.5,39.9l16.4,0.9c1.7,0.1,2.9,1.5,2.9,3.1
		C245.9,430.3,244.6,431.6,243,431.6z"/>
	<path class="st1" d="M102.8,71.8c-0.7,0.1,17.2-20.7,41.9-9.9c2.2,1,4.2,2.2,6,3.6c3.3,2.4,11.5,7.2,23.5,5.8
		c-1.4-0.2-31.6,15.2-69,2C104.3,73,103.5,72.4,102.8,71.8L102.8,71.8z"/>
	<path class="st1" d="M102.6,71.5c0.2-0.5,20.2-12.4,24.6-39.1c0.4-2.5,0.5-4.9,0.5-7.3c0-4.1,1-14.8,15.3-25
		c-0.5-1.8-53,26.9-41.7,68.9C101.5,69.9,102,70.8,102.6,71.5L102.6,71.5z"/>
	<path class="st1" d="M69.4,111.7c-0.6,0.3,10.6-23.7,36.4-19.1c2.3,0.4,4.5,1.1,6.6,2c3.7,1.5,12.7,4.2,23.1,0.2
		c-1.2,0.1-24.4,21.5-63.4,17.8C71.1,112.4,70.2,112.1,69.4,111.7L69.4,111.7z"/>
	<path class="st1" d="M69.1,111.4c0.1-0.5,15.7-16.5,12.2-42.8c-0.3-2.5-0.9-4.8-1.6-7c-1.2-3.8-3.3-14.3,6.7-27.1
		c-0.7-1.6-40.8,37.5-19.1,74.9C67.6,110.2,68.3,110.9,69.1,111.4L69.1,111.4z"/>
	<path class="st1" d="M47.7,157.7c-0.5,0.4,4.3-25.3,30-27c2.3-0.1,4.5,0,6.8,0.4c3.9,0.6,13.2,1,21.9-5.3
		c-1,0.4-17.2,26.2-55.9,32.1C49.6,158.1,48.6,158,47.7,157.7L47.7,157.7z"/>
	<path class="st1" d="M47.4,157.6c0-0.5,11.1-19.7,0.7-43.8c-1-2.3-2.1-4.3-3.4-6.3c-2.1-3.4-6.9-12.9-1-27.4
		c-0.9-1.5-28.5,45.3,1.4,76C45.7,156.7,46.5,157.3,47.4,157.6L47.4,157.6z"/>
	<path class="st1" d="M37.9,207.4c-0.4,0.5-1.8-25.5,22.6-33.3c2.2-0.7,4.4-1.1,6.6-1.3c3.9-0.4,13-2.2,19.8-10.4
		c-0.8,0.6-10,29.2-46.2,44.5C39.8,207.2,38.8,207.4,37.9,207.4L37.9,207.4z"/>
	<path class="st1" d="M37.5,207.3c-0.1-0.5,6.1-21.7-9.8-42.4c-1.5-1.9-3.1-3.7-4.9-5.2c-2.9-2.7-9.8-10.7-7.8-26
		c-1.1-1.2-16.3,50.4,19.8,72.7C35.7,206.9,36.6,207.2,37.5,207.3L37.5,207.3z"/>
	<path class="st1" d="M39.9,257.9c-0.2,0.6-7.6-24.3,14.2-37.9c2-1.2,4-2.1,6.1-2.9c3.7-1.3,12.1-5.3,16.7-14.8
		c-0.6,0.8-2.9,30.7-34.5,54.4C41.7,257.3,40.8,257.7,39.9,257.9L39.9,257.9z"/>
	<path class="st1" d="M39.5,257.9c-0.3-0.5,0.9-22.6-19.4-38.7c-1.9-1.5-3.9-2.8-5.9-3.9c-3.5-1.9-12-8-13.7-23.2
		c-1.3-1-4,52.6,36.2,65.6C37.6,258,38.6,258,39.5,257.9L39.5,257.9z"/>
	<path class="st1" d="M53.7,306.6c-0.1,0.6-13.2-21.9,4.8-40.4c1.6-1.6,3.4-3,5.3-4.3c3.3-2.2,10.5-8.2,12.8-18.6
		c-0.4,0.9,4.3,30.5-20.7,61.5C55.3,305.6,54.6,306.2,53.7,306.6L53.7,306.6z"/>
	<path class="st1" d="M53.4,306.8c-0.4-0.4-4.5-22.3-28-33c-2.2-1-4.4-1.7-6.7-2.3c-3.8-1-13.5-4.8-18.7-19.2
		c-1.5-0.7,8.3,52.2,50.5,54.9C51.6,307.2,52.5,307.1,53.4,306.8L53.4,306.8z"/>
	<path class="st1" d="M79.4,350.9c0,0.6-18.6-18.2-5.5-40.8c1.2-2,2.6-3.8,4.1-5.5c2.7-3,8.2-10.6,8-21.3
		c-0.2,0.9,11.4,28.7-4.9,65.3C80.7,349.5,80.1,350.3,79.4,350.9L79.4,350.9z"/>
	<path class="st1" d="M79.1,351.1c-0.5-0.3-10.2-20.7-35.6-25.4c-2.4-0.4-4.7-0.6-7-0.6c-3.9,0-14.3-1.4-22.8-14.2
		c-1.7-0.3,20.6,48.9,62.8,41.3C77.4,352,78.3,351.7,79.1,351.1L79.1,351.1z"/>
	<path class="st1" d="M116.8,388.1c0.1,0.6-23.7-13.3-16.8-38.7c0.6-2.3,1.5-4.4,2.5-6.4c1.8-3.5,5.2-12.4,2.3-22.8
		c0,1,18.5,25.3,13,65.2C117.7,386.4,117.4,387.3,116.8,388.1L116.8,388.1z"/>
	<path class="st1" d="M116.6,388.4c-0.6-0.2-16.1-17.9-42.2-16.2c-2.4,0.2-4.8,0.6-7.1,1.1c-3.9,0.9-14.4,2.1-26-8.3
		c0-0.2,7,10.9,20.6,19.3c13.3,8.5,33.3,14.4,52.4,5.8C115.2,389.7,116,389.1,116.6,388.4L116.6,388.4z"/>
	<path class="st1" d="M166.1,415.5c0.3,0.6-28.5-7.4-29.1-33.9c-0.1-2.4,0.2-4.7,0.7-6.9c0.8-3.9,1.6-13.4-4.4-22.9
		c0.2,1,25.6,20.4,33,60.9C166.5,413.6,166.4,414.6,166.1,415.5L166.1,415.5z"/>
	<path class="st1" d="M166,415.8c-0.7,0-22.3-13.6-47.9-5.7c-2.4,0.7-4.6,1.7-6.8,2.8c-3.6,1.8-13.8,5.6-28.3-1.8
		c0-0.2,9.9,9,26.2,13.9c15.9,5.1,38,6.1,54.9-7C165,417.4,165.6,416.7,166,415.8L166,415.8z"/>
	<path class="st1" d="M128.8,51.6c-1.1,0.4,19.1-30.8,53.6-28.1c1.3,0.1,2.5,0.3,3.8,0.5c4.1,0.7,14.6,2.7,19.9,2.6
		c0,0.1-15,7.5-30.3,14.9C160,48.8,144,56,128.8,51.6z"/>
</g>
<path class="st0" d="M243,431.6c-1.6,0-2.9-1.2-3-2.8c-0.1-1.6,1.2-3,2.9-3.1l16.4-0.9c40.5-2.2,78.4-16,109.5-39.9
	c52.8-40.5,81.4-106.1,76.7-175.5c-4.7-68.9-40.8-127.5-98.8-160.8c-1.4-0.8-1.9-2.6-1.1-4.1c0.8-1.4,2.7-1.9,4.1-1.1
	c59.8,34.3,96.9,94.6,101.8,165.5c4.9,71.3-24.6,138.8-79,180.6c-32.1,24.6-71.1,38.8-112.9,41.1l-16.4,0.9
	C243.1,431.6,243,431.6,243,431.6z"/>
<path class="st1" d="M383.1,71.8c0.7,0.1-17.2-20.7-41.9-9.9c-2.2,1-4.2,2.2-6,3.6c-3.3,2.4-11.5,7.2-23.5,5.8
	c1.4-0.2,31.6,15.2,69,2C381.6,73,382.4,72.4,383.1,71.8L383.1,71.8z"/>
<path class="st1" d="M383.3,71.5c-0.2-0.5-20.2-12.4-24.6-39.1c-0.4-2.5-0.5-4.9-0.5-7.3c0-4.1-1-14.8-15.3-25
	c0.5-1.8,53,26.9,41.7,68.9C384.4,69.9,383.9,70.8,383.3,71.5L383.3,71.5z"/>
<path class="st1" d="M416.5,111.7c0.6,0.3-10.6-23.7-36.4-19.1c-2.3,0.4-4.5,1.1-6.6,2c-3.7,1.5-12.7,4.2-23.1,0.2
	c1.2,0.1,24.4,21.5,63.4,17.8C414.8,112.4,415.7,112.1,416.5,111.7L416.5,111.7z"/>
<path class="st1" d="M416.9,111.4c-0.1-0.5-15.7-16.5-12.2-42.8c0.3-2.5,0.9-4.8,1.6-7c1.2-3.8,3.3-14.3-6.7-27.1
	c0.7-1.6,40.8,37.5,19.1,74.9C418.3,110.2,417.6,110.9,416.9,111.4L416.9,111.4z"/>
<path class="st1" d="M438.2,157.7c0.5,0.4-4.3-25.3-30-27c-2.3-0.1-4.5,0-6.8,0.4c-3.9,0.6-13.2,1-21.9-5.3
	c1,0.4,17.2,26.2,55.9,32.1C436.3,158.1,437.3,158,438.2,157.7L438.2,157.7z"/>
<path class="st1" d="M438.5,157.6c0-0.5-11.1-19.7-0.7-43.8c1-2.3,2.1-4.3,3.4-6.3c2.1-3.4,6.9-12.9,1-27.4
	c0.9-1.5,28.5,45.3-1.4,76C440.2,156.7,439.4,157.3,438.5,157.6L438.5,157.6z"/>
<path class="st1" d="M448,207.4c0.4,0.5,1.8-25.5-22.6-33.3c-2.2-0.7-4.4-1.1-6.6-1.3c-3.9-0.4-13-2.2-19.8-10.4
	c0.8,0.6,10,29.2,46.2,44.5C446.1,207.2,447.1,207.4,448,207.4L448,207.4z"/>
<path class="st1" d="M448.4,207.3c0.1-0.5-6.1-21.7,9.8-42.4c1.5-1.9,3.1-3.7,4.9-5.2c2.9-2.7,9.8-10.7,7.8-26
	c1.1-1.2,16.3,50.4-19.8,72.7C450.2,206.9,449.3,207.2,448.4,207.3L448.4,207.3z"/>
<path class="st1" d="M446,257.9c0.2,0.6,7.6-24.3-14.2-37.9c-2-1.2-4-2.1-6.1-2.9c-3.7-1.3-12.1-5.3-16.7-14.8
	c0.6,0.8,2.9,30.7,34.5,54.4C444.2,257.3,445.1,257.7,446,257.9L446,257.9z"/>
<path class="st1" d="M446.4,257.9c0.3-0.5-0.9-22.6,19.4-38.7c1.9-1.5,3.9-2.8,5.9-3.9c3.5-1.9,12-8,13.7-23.2
	c1.3-1,4,52.6-36.2,65.6C448.3,258,447.3,258,446.4,257.9L446.4,257.9z"/>
<path class="st1" d="M432.2,306.6c0.1,0.6,13.2-21.9-4.8-40.4c-1.6-1.6-3.4-3-5.3-4.3c-3.3-2.2-10.5-8.2-12.8-18.6
	c0.4,0.9-4.3,30.5,20.7,61.5C430.6,305.6,431.4,306.2,432.2,306.6L432.2,306.6z"/>
<path class="st1" d="M432.5,306.8c0.4-0.4,4.5-22.3,28-33c2.2-1,4.4-1.7,6.7-2.3c3.8-1,13.5-4.8,18.7-19.2
	c1.5-0.7-8.3,52.2-50.5,54.9C434.4,307.2,433.4,307.1,432.5,306.8L432.5,306.8z"/>
<path class="st1" d="M406.5,350.9c0,0.6,18.6-18.2,5.5-40.8c-1.2-2-2.6-3.8-4.1-5.5c-2.7-3-8.2-10.6-8-21.3
	c0.2,0.9-11.4,28.7,4.9,65.3C405.3,349.5,405.8,350.3,406.5,350.9L406.5,350.9z"/>
<path class="st1" d="M406.9,351.1c0.5-0.3,10.2-20.7,35.6-25.4c2.4-0.4,4.7-0.6,7-0.6c3.9,0,14.3-1.4,22.8-14.2
	c1.7-0.3-20.6,48.9-62.8,41.3C408.5,352,407.6,351.7,406.9,351.1L406.9,351.1z"/>
<path class="st1" d="M369.1,388.1c-0.1,0.6,23.7-13.3,16.8-38.7c-0.6-2.3-1.5-4.4-2.5-6.4c-1.8-3.5-5.2-12.4-2.3-22.8
	c0,1-18.5,25.3-13,65.2C368.2,386.4,368.6,387.3,369.1,388.1L369.1,388.1z"/>
<path class="st1" d="M369.3,388.4c0.6-0.2,16.1-17.9,42.2-16.2c2.4,0.2,4.8,0.6,7.1,1.1c3.9,0.9,14.4,2.1,26-8.3
	c0-0.2-7,10.9-20.6,19.3c-13.3,8.5-33.3,14.4-52.4,5.8C370.7,389.7,369.9,389.1,369.3,388.4L369.3,388.4z"/>
<path class="st1" d="M319.8,415.5c-0.3,0.6,28.5-7.4,29.1-33.9c0.1-2.4-0.2-4.7-0.7-6.9c-0.8-3.9-1.6-13.4,4.4-22.9
	c-0.2,1-25.6,20.4-33,60.9C319.4,413.6,319.5,414.6,319.8,415.5L319.8,415.5z"/>
<path class="st1" d="M319.9,415.8c0.7,0,22.3-13.6,47.9-5.7c2.4,0.7,4.6,1.7,6.8,2.8c3.6,1.8,13.8,5.6,28.3-1.8
	c0-0.2-9.9,9-26.2,13.9c-15.9,5.1-38,6.1-54.9-7C320.9,417.4,320.3,416.7,319.9,415.8L319.9,415.8z"/>
<path class="st1" d="M357.1,51.6c1.1,0.4-19.1-30.8-53.6-28.1c-1.3,0.1-2.5,0.3-3.8,0.5c-4.1,0.7-14.6,2.7-19.9,2.6
	c0,0.1,15,7.5,30.3,14.9C325.9,48.8,341.9,56,357.1,51.6z"/>
<g>
	<path class="st1" d="M242.9,428.6c0,0,5,19.9-19.6,32.4c-2.3,1.1-4.6,2.1-7.1,2.8c-4.2,1.4-14.1,5.6-18.1,16.1
		c0,0-0.3-35.1,41.7-50.8C240.7,428.8,241.8,428.6,242.9,428.6L242.9,428.6z"/>
	<path class="st1" d="M243.3,428.6c0,0-5,19.9,19.6,32.4c2.3,1.1,4.6,2.1,7.1,2.8c4.2,1.4,14.1,5.6,18.1,16.1
		c0,0,0.3-35.1-41.7-50.8C245.5,428.8,244.4,428.6,243.3,428.6L243.3,428.6z"/>
</g>
</svg>
